<?xml version="1.0" encoding="UTF-8"?>
<svg xmlns="http://www.w3.org/2000/svg" xmlns:xlink="http://www.w3.org/1999/xlink" width="1920" height="1080" viewBox="0 0 1920 1080">
<defs>
<g>
<g id="glyph-0-0">
<path d="M 10.078125 -8.027344 L 9.503906 -8.027344 C 9.355469 -8.4375 9.101562 -8.851562 8.742188 -9.269531 C 8.382812 -9.6875 8.027344 -9.9375 7.671875 -10.011719 C 7.519531 -10.046875 7.308594 -10.066406 7.039062 -10.074219 C 6.765625 -10.082031 6.542969 -10.085938 6.363281 -10.085938 L 4.800781 -10.085938 L 4.800781 -5.933594 L 5.910156 -5.933594 C 6.1875 -5.933594 6.441406 -5.964844 6.667969 -6.03125 C 6.898438 -6.097656 7.105469 -6.222656 7.292969 -6.410156 C 7.410156 -6.527344 7.527344 -6.730469 7.644531 -7.027344 C 7.765625 -7.320312 7.839844 -7.574219 7.875 -7.792969 L 8.453125 -7.792969 L 8.453125 -3.296875 L 7.875 -3.296875 C 7.847656 -3.507812 7.769531 -3.777344 7.644531 -4.097656 C 7.519531 -4.417969 7.402344 -4.640625 7.292969 -4.761719 C 7.125 -4.945312 6.925781 -5.070312 6.699219 -5.136719 C 6.472656 -5.207031 6.207031 -5.242188 5.910156 -5.242188 L 4.800781 -5.242188 L 4.800781 -2.132812 C 4.800781 -1.808594 4.824219 -1.554688 4.871094 -1.363281 C 4.921875 -1.171875 5.011719 -1.027344 5.140625 -0.925781 C 5.269531 -0.832031 5.441406 -0.765625 5.664062 -0.738281 C 5.882812 -0.707031 6.183594 -0.691406 6.5625 -0.691406 C 6.738281 -0.691406 6.953125 -0.695312 7.199219 -0.699219 C 7.449219 -0.703125 7.667969 -0.71875 7.855469 -0.746094 C 8.066406 -0.769531 8.265625 -0.808594 8.449219 -0.859375 C 8.636719 -0.910156 8.773438 -0.980469 8.863281 -1.078125 C 9.105469 -1.328125 9.378906 -1.707031 9.683594 -2.214844 C 9.988281 -2.722656 10.1875 -3.105469 10.285156 -3.355469 L 10.839844 -3.355469 L 10.632812 0 L 0.523438 0 L 0.523438 -0.59375 C 0.664062 -0.601562 0.859375 -0.621094 1.101562 -0.652344 C 1.34375 -0.683594 1.515625 -0.71875 1.617188 -0.757812 C 1.808594 -0.839844 1.9375 -0.941406 2.003906 -1.066406 C 2.070312 -1.191406 2.105469 -1.347656 2.105469 -1.542969 L 2.105469 -9.144531 C 2.105469 -9.328125 2.074219 -9.476562 2.019531 -9.597656 C 1.964844 -9.714844 1.832031 -9.824219 1.617188 -9.921875 C 1.484375 -9.980469 1.300781 -10.035156 1.0625 -10.085938 C 0.824219 -10.136719 0.644531 -10.171875 0.523438 -10.1875 L 0.523438 -10.777344 L 10.078125 -10.777344 Z "/>
</g>
<g id="glyph-0-1">
<path d="M 10.34375 -0.160156 L 6.722656 0.0625 L 6.609375 -0.046875 L 6.609375 -1.039062 L 6.5625 -1.039062 C 6.390625 -0.882812 6.222656 -0.730469 6.058594 -0.582031 C 5.894531 -0.433594 5.699219 -0.296875 5.46875 -0.175781 C 5.210938 -0.0390625 4.96875 0.0625 4.738281 0.128906 C 4.507812 0.195312 4.171875 0.226562 3.734375 0.226562 C 2.96875 0.226562 2.386719 -0.00390625 1.976562 -0.464844 C 1.570312 -0.925781 1.367188 -1.574219 1.367188 -2.414062 L 1.367188 -5.832031 C 1.367188 -6.03125 1.328125 -6.191406 1.253906 -6.316406 C 1.179688 -6.441406 1.078125 -6.550781 0.953125 -6.644531 C 0.851562 -6.722656 0.71875 -6.777344 0.558594 -6.808594 C 0.398438 -6.84375 0.253906 -6.863281 0.121094 -6.875 L 0.121094 -7.429688 L 3.789062 -7.625 L 3.875 -7.511719 L 3.875 -2.460938 C 3.875 -1.9375 3.972656 -1.554688 4.175781 -1.304688 C 4.375 -1.058594 4.648438 -0.933594 4.996094 -0.933594 C 5.359375 -0.933594 5.679688 -1.027344 5.964844 -1.214844 C 6.253906 -1.402344 6.460938 -1.601562 6.59375 -1.816406 L 6.59375 -5.910156 C 6.59375 -6.082031 6.558594 -6.234375 6.496094 -6.371094 C 6.429688 -6.507812 6.332031 -6.621094 6.207031 -6.707031 C 6.113281 -6.769531 5.984375 -6.808594 5.816406 -6.828125 C 5.644531 -6.847656 5.472656 -6.863281 5.292969 -6.875 L 5.292969 -7.429688 L 8.984375 -7.625 L 9.101562 -7.511719 L 9.101562 -1.648438 C 9.101562 -1.472656 9.136719 -1.320312 9.207031 -1.195312 C 9.277344 -1.070312 9.378906 -0.96875 9.515625 -0.882812 C 9.609375 -0.820312 9.734375 -0.777344 9.886719 -0.753906 C 10.042969 -0.734375 10.195312 -0.71875 10.34375 -0.714844 Z "/>
</g>
<g id="glyph-0-2">
<path d="M 5.082031 0 L 0.296875 0 L 0.296875 -0.554688 C 0.429688 -0.566406 0.558594 -0.578125 0.683594 -0.59375 C 0.808594 -0.609375 0.917969 -0.632812 1.015625 -0.667969 C 1.179688 -0.730469 1.289062 -0.816406 1.347656 -0.929688 C 1.40625 -1.042969 1.4375 -1.195312 1.4375 -1.382812 L 1.4375 -9.796875 C 1.4375 -9.992188 1.394531 -10.167969 1.316406 -10.332031 C 1.238281 -10.5 1.132812 -10.625 1.003906 -10.710938 C 0.902344 -10.777344 0.75 -10.839844 0.542969 -10.898438 C 0.339844 -10.960938 0.15625 -10.996094 0 -11.007812 L 0 -11.5625 L 3.828125 -11.757812 L 3.941406 -11.636719 L 3.941406 -1.480469 C 3.941406 -1.292969 3.976562 -1.140625 4.042969 -1.027344 C 4.109375 -0.910156 4.214844 -0.816406 4.363281 -0.753906 C 4.464844 -0.707031 4.570312 -0.664062 4.683594 -0.628906 C 4.796875 -0.59375 4.929688 -0.570312 5.082031 -0.554688 Z "/>
</g>
<g id="glyph-0-3">
<path d="M 8.605469 -1.816406 C 8.429688 -1.527344 8.214844 -1.253906 7.964844 -1 C 7.714844 -0.742188 7.429688 -0.523438 7.109375 -0.34375 C 6.769531 -0.148438 6.425781 -0.00390625 6.082031 0.09375 C 5.734375 0.195312 5.335938 0.242188 4.882812 0.242188 C 4.132812 0.242188 3.488281 0.136719 2.941406 -0.0742188 C 2.398438 -0.289062 1.949219 -0.574219 1.59375 -0.933594 C 1.242188 -1.292969 0.976562 -1.71875 0.800781 -2.207031 C 0.625 -2.695312 0.539062 -3.226562 0.539062 -3.796875 C 0.539062 -4.3125 0.632812 -4.808594 0.824219 -5.28125 C 1.015625 -5.757812 1.285156 -6.179688 1.632812 -6.546875 C 1.976562 -6.90625 2.410156 -7.199219 2.9375 -7.421875 C 3.460938 -7.644531 4.046875 -7.753906 4.695312 -7.753906 C 5.402344 -7.753906 5.984375 -7.667969 6.441406 -7.496094 C 6.898438 -7.324219 7.273438 -7.085938 7.574219 -6.78125 C 7.863281 -6.496094 8.070312 -6.152344 8.203125 -5.761719 C 8.335938 -5.367188 8.402344 -4.957031 8.402344 -4.527344 L 8.402344 -4.035156 L 3.265625 -4.035156 C 3.265625 -2.996094 3.464844 -2.207031 3.867188 -1.664062 C 4.265625 -1.121094 4.902344 -0.851562 5.773438 -0.851562 C 6.25 -0.851562 6.675781 -0.980469 7.054688 -1.242188 C 7.4375 -1.503906 7.761719 -1.832031 8.027344 -2.234375 L 8.605469 -1.816406 M 5.703125 -4.703125 C 5.703125 -5.003906 5.6875 -5.316406 5.660156 -5.636719 C 5.628906 -5.953125 5.574219 -6.214844 5.5 -6.417969 C 5.414062 -6.65625 5.296875 -6.835938 5.144531 -6.957031 C 4.996094 -7.078125 4.808594 -7.140625 4.582031 -7.140625 C 4.191406 -7.140625 3.878906 -6.941406 3.644531 -6.546875 C 3.414062 -6.152344 3.285156 -5.527344 3.265625 -4.671875 Z "/>
</g>
<g id="glyph-0-4">
<path d="M 8.007812 -6.144531 C 8.007812 -5.761719 7.886719 -5.421875 7.648438 -5.132812 C 7.410156 -4.839844 7.097656 -4.695312 6.707031 -4.695312 C 6.335938 -4.695312 6.023438 -4.789062 5.769531 -4.972656 C 5.511719 -5.160156 5.386719 -5.433594 5.386719 -5.796875 C 5.386719 -5.976562 5.398438 -6.113281 5.421875 -6.210938 C 5.449219 -6.308594 5.472656 -6.402344 5.492188 -6.488281 C 5.257812 -6.476562 5.011719 -6.394531 4.753906 -6.246094 C 4.496094 -6.09375 4.269531 -5.894531 4.070312 -5.644531 L 4.070312 -1.472656 C 4.070312 -1.296875 4.097656 -1.148438 4.15625 -1.03125 C 4.210938 -0.917969 4.304688 -0.824219 4.4375 -0.757812 C 4.546875 -0.703125 4.726562 -0.65625 4.980469 -0.617188 C 5.230469 -0.582031 5.410156 -0.558594 5.523438 -0.554688 L 5.523438 0 L 0.441406 0 L 0.441406 -0.554688 C 0.566406 -0.566406 0.695312 -0.578125 0.824219 -0.597656 C 0.953125 -0.613281 1.0625 -0.636719 1.15625 -0.667969 C 1.316406 -0.722656 1.429688 -0.808594 1.488281 -0.925781 C 1.550781 -1.042969 1.578125 -1.195312 1.578125 -1.382812 L 1.578125 -5.804688 C 1.578125 -5.984375 1.535156 -6.148438 1.449219 -6.292969 C 1.363281 -6.4375 1.261719 -6.550781 1.140625 -6.636719 C 1.046875 -6.699219 0.933594 -6.75 0.792969 -6.789062 C 0.65625 -6.832031 0.5 -6.859375 0.335938 -6.875 L 0.335938 -7.429688 L 3.957031 -7.625 L 4.070312 -7.511719 L 4.070312 -6.410156 L 4.101562 -6.410156 C 4.449219 -6.816406 4.820312 -7.132812 5.214844 -7.363281 C 5.605469 -7.59375 6.015625 -7.710938 6.441406 -7.710938 C 6.910156 -7.710938 7.289062 -7.5625 7.578125 -7.273438 C 7.863281 -6.980469 8.007812 -6.605469 8.007812 -6.144531 Z "/>
</g>
<g id="glyph-0-5">
<path d="M 3.351562 -10.40625 C 3.351562 -10.128906 3.226562 -9.585938 2.980469 -8.785156 C 2.734375 -7.980469 2.527344 -7.140625 2.355469 -6.257812 L 1.832031 -6.257812 C 1.652344 -7.140625 1.441406 -7.980469 1.199219 -8.785156 C 0.957031 -9.585938 0.835938 -10.128906 0.835938 -10.40625 C 0.835938 -10.730469 0.945312 -11.015625 1.164062 -11.257812 C 1.378906 -11.5 1.691406 -11.621094 2.097656 -11.621094 C 2.492188 -11.621094 2.800781 -11.5 3.019531 -11.257812 C 3.238281 -11.015625 3.351562 -10.730469 3.351562 -10.40625 Z "/>
</g>
<g id="glyph-0-6">
<path d="M 3.957031 0.257812 C 3.464844 0.257812 2.988281 0.1875 2.519531 0.0429688 C 2.050781 -0.101562 1.6875 -0.253906 1.429688 -0.417969 L 1.199219 0.0976562 L 0.609375 0.0976562 L 0.507812 -2.734375 L 1.0625 -2.734375 C 1.140625 -2.507812 1.265625 -2.25 1.441406 -1.964844 C 1.621094 -1.675781 1.824219 -1.421875 2.050781 -1.191406 C 2.289062 -0.964844 2.5625 -0.773438 2.867188 -0.617188 C 3.171875 -0.457031 3.5 -0.378906 3.851562 -0.378906 C 4.3125 -0.378906 4.65625 -0.46875 4.878906 -0.648438 C 5.105469 -0.828125 5.21875 -1.105469 5.21875 -1.480469 C 5.21875 -1.683594 5.167969 -1.851562 5.066406 -1.984375 C 4.964844 -2.113281 4.824219 -2.226562 4.648438 -2.324219 C 4.449219 -2.425781 4.234375 -2.511719 4 -2.582031 C 3.761719 -2.652344 3.472656 -2.738281 3.128906 -2.839844 C 2.785156 -2.941406 2.488281 -3.042969 2.246094 -3.148438 C 2 -3.253906 1.746094 -3.414062 1.480469 -3.636719 C 1.253906 -3.835938 1.070312 -4.074219 0.933594 -4.351562 C 0.796875 -4.628906 0.730469 -4.960938 0.730469 -5.347656 C 0.730469 -6.0625 1.027344 -6.636719 1.628906 -7.078125 C 2.230469 -7.519531 3.015625 -7.738281 3.988281 -7.738281 C 4.449219 -7.738281 4.871094 -7.691406 5.261719 -7.597656 C 5.648438 -7.503906 5.972656 -7.402344 6.234375 -7.292969 L 6.394531 -7.738281 L 6.972656 -7.738281 L 7.09375 -5.148438 L 6.5625 -5.148438 C 6.386719 -5.675781 6.082031 -6.132812 5.652344 -6.511719 C 5.222656 -6.894531 4.757812 -7.085938 4.261719 -7.085938 C 3.871094 -7.085938 3.566406 -7.003906 3.34375 -6.84375 C 3.121094 -6.683594 3.007812 -6.457031 3.007812 -6.167969 C 3.007812 -5.78125 3.171875 -5.503906 3.496094 -5.332031 C 3.824219 -5.160156 4.277344 -4.996094 4.867188 -4.847656 C 5.769531 -4.613281 6.433594 -4.296875 6.851562 -3.894531 C 7.273438 -3.488281 7.480469 -2.976562 7.480469 -2.355469 C 7.480469 -1.523438 7.15625 -0.882812 6.503906 -0.425781 C 5.855469 0.03125 5.003906 0.257812 3.957031 0.257812 Z "/>
</g>
<g id="glyph-0-7">
</g>
<g id="glyph-0-8">
<path d="M 5.042969 0.296875 C 4.386719 0.296875 3.769531 0.214844 3.203125 0.0507812 C 2.632812 -0.113281 2.148438 -0.308594 1.753906 -0.53125 L 1.230469 0 L 0.585938 0 L 0.484375 -3.898438 L 1.140625 -3.898438 C 1.285156 -3.527344 1.472656 -3.136719 1.703125 -2.722656 C 1.929688 -2.3125 2.191406 -1.945312 2.492188 -1.621094 C 2.800781 -1.28125 3.144531 -1.003906 3.527344 -0.789062 C 3.910156 -0.578125 4.355469 -0.472656 4.867188 -0.472656 C 5.558594 -0.472656 6.085938 -0.640625 6.453125 -0.976562 C 6.820312 -1.3125 7.003906 -1.738281 7.003906 -2.25 C 7.003906 -2.671875 6.847656 -3.023438 6.535156 -3.308594 C 6.226562 -3.597656 5.742188 -3.84375 5.089844 -4.050781 C 4.664062 -4.191406 4.273438 -4.316406 3.914062 -4.433594 C 3.558594 -4.550781 3.222656 -4.671875 2.910156 -4.792969 C 2.183594 -5.082031 1.648438 -5.496094 1.296875 -6.03125 C 0.941406 -6.570312 0.765625 -7.171875 0.765625 -7.835938 C 0.765625 -8.253906 0.859375 -8.660156 1.039062 -9.046875 C 1.222656 -9.4375 1.488281 -9.785156 1.839844 -10.09375 C 2.171875 -10.382812 2.601562 -10.617188 3.121094 -10.800781 C 3.644531 -10.984375 4.210938 -11.074219 4.824219 -11.074219 C 5.421875 -11.074219 5.980469 -10.992188 6.5 -10.824219 C 7.023438 -10.65625 7.433594 -10.488281 7.730469 -10.324219 L 8.195312 -10.777344 L 8.855469 -10.777344 L 8.917969 -7.101562 L 8.265625 -7.101562 C 8.113281 -7.496094 7.933594 -7.902344 7.730469 -8.316406 C 7.523438 -8.730469 7.308594 -9.074219 7.078125 -9.347656 C 6.832031 -9.640625 6.546875 -9.878906 6.222656 -10.050781 C 5.898438 -10.226562 5.515625 -10.316406 5.082031 -10.316406 C 4.535156 -10.316406 4.085938 -10.160156 3.742188 -9.851562 C 3.394531 -9.542969 3.21875 -9.160156 3.21875 -8.703125 C 3.21875 -8.269531 3.371094 -7.917969 3.671875 -7.644531 C 3.972656 -7.371094 4.445312 -7.128906 5.082031 -6.921875 C 5.457031 -6.796875 5.839844 -6.667969 6.226562 -6.542969 C 6.617188 -6.414062 6.964844 -6.292969 7.269531 -6.175781 C 8.003906 -5.890625 8.5625 -5.5 8.945312 -5 C 9.328125 -4.5 9.515625 -3.882812 9.515625 -3.140625 C 9.515625 -2.675781 9.410156 -2.222656 9.191406 -1.789062 C 8.972656 -1.351562 8.679688 -0.988281 8.308594 -0.699219 C 7.90625 -0.378906 7.4375 -0.136719 6.90625 0.0390625 C 6.371094 0.210938 5.753906 0.296875 5.042969 0.296875 Z "/>
</g>
<g id="glyph-0-9">
<path d="M 15.527344 0 L 11.015625 0 L 11.015625 -0.554688 C 11.125 -0.570312 11.238281 -0.582031 11.359375 -0.59375 C 11.480469 -0.601562 11.582031 -0.628906 11.660156 -0.667969 C 11.773438 -0.71875 11.84375 -0.804688 11.871094 -0.921875 C 11.902344 -1.042969 11.917969 -1.195312 11.917969 -1.382812 L 11.917969 -4.929688 C 11.917969 -5.453125 11.824219 -5.84375 11.640625 -6.101562 C 11.453125 -6.363281 11.1875 -6.496094 10.84375 -6.496094 C 10.625 -6.496094 10.429688 -6.460938 10.261719 -6.390625 C 10.089844 -6.324219 9.933594 -6.238281 9.792969 -6.136719 C 9.644531 -6.03125 9.53125 -5.925781 9.449219 -5.816406 C 9.367188 -5.710938 9.300781 -5.621094 9.242188 -5.542969 L 9.242188 -1.464844 C 9.242188 -1.285156 9.265625 -1.136719 9.308594 -1.023438 C 9.351562 -0.90625 9.429688 -0.816406 9.546875 -0.753906 C 9.625 -0.707031 9.71875 -0.664062 9.820312 -0.628906 C 9.921875 -0.59375 10.03125 -0.570312 10.148438 -0.554688 L 10.148438 0 L 5.832031 0 L 5.832031 -0.554688 C 5.929688 -0.566406 6.042969 -0.578125 6.179688 -0.59375 C 6.316406 -0.609375 6.414062 -0.632812 6.480469 -0.667969 C 6.585938 -0.722656 6.65625 -0.804688 6.6875 -0.910156 C 6.722656 -1.019531 6.738281 -1.175781 6.738281 -1.382812 L 6.738281 -4.929688 C 6.738281 -5.453125 6.644531 -5.84375 6.460938 -6.101562 C 6.273438 -6.363281 6.007812 -6.496094 5.664062 -6.496094 C 5.445312 -6.496094 5.25 -6.460938 5.082031 -6.390625 C 4.910156 -6.324219 4.753906 -6.238281 4.613281 -6.136719 C 4.464844 -6.03125 4.351562 -5.925781 4.269531 -5.816406 C 4.1875 -5.710938 4.121094 -5.621094 4.0625 -5.542969 L 4.0625 -1.464844 C 4.0625 -1.289062 4.085938 -1.140625 4.132812 -1.027344 C 4.175781 -0.910156 4.257812 -0.816406 4.375 -0.753906 C 4.457031 -0.707031 4.546875 -0.664062 4.652344 -0.628906 C 4.757812 -0.59375 4.867188 -0.570312 4.984375 -0.554688 L 4.984375 0 L 0.433594 0 L 0.433594 -0.554688 C 0.566406 -0.566406 0.695312 -0.578125 0.820312 -0.59375 C 0.945312 -0.609375 1.054688 -0.632812 1.148438 -0.667969 C 1.308594 -0.730469 1.421875 -0.816406 1.480469 -0.929688 C 1.542969 -1.042969 1.574219 -1.195312 1.574219 -1.382812 L 1.574219 -5.804688 C 1.574219 -5.964844 1.527344 -6.125 1.441406 -6.277344 C 1.355469 -6.433594 1.253906 -6.550781 1.132812 -6.636719 C 1.039062 -6.699219 0.925781 -6.75 0.785156 -6.789062 C 0.648438 -6.832031 0.492188 -6.859375 0.328125 -6.875 L 0.328125 -7.429688 L 3.949219 -7.625 L 4.0625 -7.511719 L 4.0625 -6.441406 L 4.09375 -6.441406 C 4.234375 -6.566406 4.402344 -6.71875 4.597656 -6.894531 C 4.792969 -7.066406 4.976562 -7.207031 5.148438 -7.316406 C 5.335938 -7.4375 5.578125 -7.539062 5.871094 -7.617188 C 6.164062 -7.699219 6.488281 -7.738281 6.835938 -7.738281 C 7.414062 -7.738281 7.894531 -7.613281 8.28125 -7.363281 C 8.671875 -7.113281 8.945312 -6.78125 9.105469 -6.363281 L 9.175781 -6.363281 C 9.324219 -6.5 9.503906 -6.664062 9.714844 -6.847656 C 9.925781 -7.03125 10.121094 -7.179688 10.300781 -7.292969 C 10.496094 -7.417969 10.75 -7.523438 11.054688 -7.609375 C 11.363281 -7.695312 11.691406 -7.738281 12.039062 -7.738281 C 12.804688 -7.738281 13.390625 -7.515625 13.804688 -7.0625 C 14.21875 -6.613281 14.425781 -5.972656 14.425781 -5.140625 L 14.425781 -1.449219 C 14.425781 -1.261719 14.453125 -1.113281 14.507812 -1 C 14.5625 -0.886719 14.664062 -0.796875 14.8125 -0.738281 C 14.894531 -0.703125 14.992188 -0.664062 15.113281 -0.628906 C 15.230469 -0.59375 15.367188 -0.570312 15.527344 -0.554688 Z "/>
</g>
<g id="glyph-0-10">
<path d="M 8.195312 -6.636719 C 8.570312 -6.289062 8.855469 -5.871094 9.054688 -5.386719 C 9.25 -4.898438 9.351562 -4.371094 9.351562 -3.804688 C 9.351562 -3.242188 9.253906 -2.714844 9.058594 -2.214844 C 8.863281 -1.714844 8.578125 -1.289062 8.203125 -0.933594 C 7.804688 -0.554688 7.324219 -0.261719 6.773438 -0.0625 C 6.21875 0.140625 5.582031 0.242188 4.867188 0.242188 C 4.25 0.242188 3.683594 0.15625 3.164062 -0.0234375 C 2.644531 -0.199219 2.183594 -0.464844 1.785156 -0.820312 C 1.398438 -1.160156 1.097656 -1.578125 0.875 -2.078125 C 0.652344 -2.578125 0.539062 -3.132812 0.539062 -3.753906 C 0.539062 -4.359375 0.636719 -4.902344 0.832031 -5.375 C 1.027344 -5.847656 1.320312 -6.269531 1.710938 -6.636719 C 2.082031 -6.992188 2.546875 -7.269531 3.09375 -7.460938 C 3.644531 -7.65625 4.257812 -7.753906 4.9375 -7.753906 C 5.644531 -7.753906 6.269531 -7.65625 6.808594 -7.460938 C 7.347656 -7.269531 7.8125 -6.992188 8.195312 -6.636719 M 6.25 -1.375 C 6.363281 -1.660156 6.445312 -2.003906 6.5 -2.40625 C 6.550781 -2.8125 6.578125 -3.285156 6.578125 -3.820312 C 6.578125 -4.175781 6.550781 -4.582031 6.5 -5.035156 C 6.453125 -5.492188 6.375 -5.851562 6.273438 -6.113281 C 6.152344 -6.433594 5.984375 -6.683594 5.769531 -6.867188 C 5.554688 -7.046875 5.28125 -7.140625 4.953125 -7.140625 C 4.59375 -7.140625 4.304688 -7.042969 4.089844 -6.84375 C 3.875 -6.644531 3.710938 -6.390625 3.59375 -6.078125 C 3.488281 -5.789062 3.414062 -5.449219 3.371094 -5.0625 C 3.332031 -4.675781 3.3125 -4.269531 3.3125 -3.851562 C 3.3125 -3.300781 3.328125 -2.84375 3.363281 -2.480469 C 3.398438 -2.117188 3.488281 -1.753906 3.625 -1.390625 C 3.738281 -1.074219 3.90625 -0.828125 4.125 -0.644531 C 4.34375 -0.464844 4.617188 -0.371094 4.953125 -0.371094 C 5.257812 -0.371094 5.515625 -0.457031 5.734375 -0.625 C 5.953125 -0.796875 6.125 -1.046875 6.25 -1.375 Z "/>
</g>
<g id="glyph-0-11">
<path d="M 7.625 -10.46875 C 7.625 -10.339844 7.605469 -10.199219 7.566406 -10.050781 C 7.523438 -9.898438 7.457031 -9.769531 7.367188 -9.660156 C 7.261719 -9.535156 7.140625 -9.4375 7.011719 -9.375 C 6.878906 -9.308594 6.683594 -9.273438 6.417969 -9.273438 C 6.019531 -9.273438 5.703125 -9.414062 5.476562 -9.691406 C 5.25 -9.96875 5.003906 -10.433594 4.746094 -11.082031 C 4.542969 -10.996094 4.378906 -10.773438 4.253906 -10.414062 C 4.128906 -10.054688 4.0625 -9.285156 4.0625 -8.101562 L 4.0625 -7.503906 L 6.160156 -7.503906 L 6.160156 -6.675781 L 4.078125 -6.675781 L 4.078125 -1.449219 C 4.078125 -1.253906 4.125 -1.097656 4.214844 -0.992188 C 4.308594 -0.882812 4.425781 -0.800781 4.574219 -0.75 C 4.695312 -0.710938 4.855469 -0.671875 5.050781 -0.632812 C 5.25 -0.597656 5.425781 -0.570312 5.582031 -0.554688 L 5.582031 0 L 0.449219 0 L 0.449219 -0.554688 C 0.582031 -0.566406 0.710938 -0.578125 0.835938 -0.59375 C 0.960938 -0.609375 1.070312 -0.632812 1.167969 -0.667969 C 1.328125 -0.730469 1.441406 -0.816406 1.5 -0.929688 C 1.558594 -1.042969 1.585938 -1.195312 1.585938 -1.382812 L 1.585938 -6.675781 L 0.046875 -6.675781 L 0.046875 -7.503906 L 1.585938 -7.503906 C 1.585938 -8.046875 1.664062 -8.570312 1.824219 -9.078125 C 1.980469 -9.585938 2.222656 -10.039062 2.550781 -10.4375 C 2.871094 -10.832031 3.292969 -11.152344 3.8125 -11.394531 C 4.335938 -11.636719 4.949219 -11.757812 5.652344 -11.757812 C 6.277344 -11.757812 6.765625 -11.640625 7.109375 -11.402344 C 7.453125 -11.164062 7.625 -10.851562 7.625 -10.46875 Z "/>
</g>
<g id="glyph-0-12">
<path d="M 10.625 -8.082031 C 10.625 -7.472656 10.5 -6.953125 10.25 -6.511719 C 10 -6.074219 9.652344 -5.71875 9.214844 -5.445312 C 8.757812 -5.164062 8.238281 -4.957031 7.652344 -4.832031 C 7.066406 -4.703125 6.410156 -4.640625 5.679688 -4.640625 L 4.800781 -4.640625 L 4.800781 -1.609375 C 4.800781 -1.429688 4.835938 -1.269531 4.902344 -1.136719 C 4.972656 -1 5.101562 -0.894531 5.292969 -0.8125 C 5.394531 -0.773438 5.558594 -0.730469 5.789062 -0.683594 C 6.015625 -0.636719 6.207031 -0.609375 6.363281 -0.59375 L 6.363281 0 L 0.523438 0 L 0.523438 -0.59375 C 0.671875 -0.609375 0.867188 -0.628906 1.109375 -0.65625 C 1.351562 -0.683594 1.523438 -0.71875 1.617188 -0.757812 C 1.816406 -0.839844 1.945312 -0.9375 2.007812 -1.054688 C 2.074219 -1.171875 2.105469 -1.335938 2.105469 -1.542969 L 2.105469 -9.144531 C 2.105469 -9.324219 2.074219 -9.476562 2.011719 -9.605469 C 1.953125 -9.734375 1.820312 -9.839844 1.617188 -9.925781 C 1.476562 -9.988281 1.289062 -10.042969 1.050781 -10.089844 C 0.816406 -10.140625 0.640625 -10.171875 0.523438 -10.1875 L 0.523438 -10.777344 L 6.472656 -10.777344 C 7.863281 -10.777344 8.90625 -10.558594 9.59375 -10.113281 C 10.28125 -9.671875 10.625 -8.992188 10.625 -8.082031 M 7.664062 -7.695312 C 7.664062 -8.503906 7.5 -9.105469 7.175781 -9.5 C 6.847656 -9.890625 6.265625 -10.085938 5.429688 -10.085938 L 4.800781 -10.085938 L 4.800781 -5.355469 L 5.121094 -5.355469 C 5.949219 -5.355469 6.582031 -5.546875 7.015625 -5.929688 C 7.449219 -6.3125 7.664062 -6.898438 7.664062 -7.695312 Z "/>
</g>
<g id="glyph-0-13">
<path d="M 13.535156 -6.980469 C 13.300781 -6.945312 13.085938 -6.867188 12.890625 -6.75 C 12.691406 -6.628906 12.523438 -6.410156 12.386719 -6.085938 C 12.035156 -5.21875 11.75 -4.519531 11.539062 -3.988281 C 11.324219 -3.457031 11.027344 -2.6875 10.640625 -1.6875 C 10.5625 -1.480469 10.464844 -1.191406 10.347656 -0.828125 C 10.234375 -0.464844 10.144531 -0.164062 10.078125 0.0703125 L 8.59375 0.0703125 L 6.683594 -5.101562 L 4.890625 0.0703125 L 3.425781 0.0703125 C 2.914062 -1.3125 2.511719 -2.386719 2.21875 -3.148438 C 1.925781 -3.910156 1.53125 -4.917969 1.039062 -6.167969 C 0.949219 -6.40625 0.792969 -6.59375 0.574219 -6.730469 C 0.351562 -6.867188 0.125 -6.949219 -0.105469 -6.980469 L -0.105469 -7.535156 L 4.558594 -7.535156 L 4.558594 -6.980469 C 4.386719 -6.964844 4.179688 -6.925781 3.941406 -6.859375 C 3.703125 -6.792969 3.585938 -6.703125 3.585938 -6.59375 C 3.585938 -6.542969 3.589844 -6.5 3.601562 -6.460938 C 3.617188 -6.421875 3.636719 -6.351562 3.667969 -6.25 C 3.804688 -5.855469 3.992188 -5.34375 4.230469 -4.71875 C 4.46875 -4.089844 4.746094 -3.363281 5.066406 -2.527344 L 6.753906 -7.535156 L 8.261719 -7.535156 L 10.175781 -2.375 C 10.46875 -3.152344 10.695312 -3.765625 10.855469 -4.214844 C 11.015625 -4.660156 11.21875 -5.238281 11.460938 -5.949219 C 11.496094 -6.054688 11.515625 -6.148438 11.523438 -6.230469 C 11.53125 -6.316406 11.53125 -6.371094 11.527344 -6.394531 C 11.527344 -6.488281 11.484375 -6.570312 11.390625 -6.640625 C 11.300781 -6.714844 11.191406 -6.773438 11.066406 -6.820312 C 10.9375 -6.867188 10.816406 -6.902344 10.699219 -6.925781 C 10.578125 -6.953125 10.480469 -6.96875 10.398438 -6.980469 L 10.398438 -7.535156 L 13.535156 -7.535156 Z "/>
</g>
<g id="glyph-0-14">
<path d="M 6.175781 0.296875 C 5.386719 0.296875 4.644531 0.167969 3.957031 -0.0859375 C 3.269531 -0.34375 2.667969 -0.714844 2.15625 -1.203125 C 1.65625 -1.679688 1.261719 -2.269531 0.972656 -2.96875 C 0.683594 -3.671875 0.539062 -4.445312 0.539062 -5.285156 C 0.539062 -6.125 0.683594 -6.898438 0.976562 -7.609375 C 1.265625 -8.324219 1.675781 -8.941406 2.203125 -9.460938 C 2.71875 -9.972656 3.339844 -10.371094 4.0625 -10.652344 C 4.789062 -10.933594 5.5625 -11.074219 6.386719 -11.074219 C 6.984375 -11.074219 7.53125 -11 8.019531 -10.855469 C 8.511719 -10.707031 8.925781 -10.542969 9.265625 -10.359375 L 9.738281 -10.777344 L 10.398438 -10.777344 L 10.46875 -6.84375 L 9.796875 -6.84375 C 9.417969 -8.046875 8.964844 -8.929688 8.433594 -9.492188 C 7.902344 -10.054688 7.253906 -10.335938 6.492188 -10.335938 C 5.539062 -10.335938 4.816406 -9.917969 4.320312 -9.078125 C 3.824219 -8.238281 3.578125 -7.0625 3.578125 -5.542969 C 3.578125 -4.6875 3.664062 -3.957031 3.832031 -3.351562 C 4 -2.742188 4.222656 -2.253906 4.496094 -1.886719 C 4.789062 -1.5 5.136719 -1.21875 5.535156 -1.039062 C 5.933594 -0.855469 6.378906 -0.765625 6.863281 -0.765625 C 7.570312 -0.765625 8.203125 -0.960938 8.753906 -1.34375 C 9.308594 -1.730469 9.8125 -2.3125 10.269531 -3.089844 L 10.921875 -2.695312 C 10.703125 -2.25 10.457031 -1.851562 10.179688 -1.5 C 9.898438 -1.148438 9.578125 -0.84375 9.214844 -0.59375 C 8.8125 -0.3125 8.371094 -0.0976562 7.886719 0.0625 C 7.40625 0.21875 6.832031 0.296875 6.175781 0.296875 Z "/>
</g>
<g id="glyph-0-15">
<path d="M 10.46875 0 L 5.902344 0 L 5.902344 -0.554688 C 6 -0.566406 6.113281 -0.578125 6.25 -0.59375 C 6.386719 -0.609375 6.492188 -0.632812 6.5625 -0.667969 C 6.667969 -0.722656 6.746094 -0.804688 6.789062 -0.910156 C 6.835938 -1.019531 6.859375 -1.175781 6.859375 -1.382812 L 6.859375 -4.9375 C 6.859375 -5.453125 6.765625 -5.84375 6.574219 -6.101562 C 6.382812 -6.363281 6.101562 -6.496094 5.730469 -6.496094 C 5.527344 -6.496094 5.339844 -6.464844 5.164062 -6.402344 C 4.988281 -6.34375 4.816406 -6.253906 4.648438 -6.136719 C 4.503906 -6.035156 4.386719 -5.933594 4.296875 -5.824219 C 4.207031 -5.71875 4.132812 -5.625 4.070312 -5.542969 L 4.070312 -1.464844 C 4.070312 -1.289062 4.097656 -1.140625 4.148438 -1.023438 C 4.199219 -0.902344 4.28125 -0.8125 4.398438 -0.753906 C 4.480469 -0.707031 4.582031 -0.664062 4.703125 -0.628906 C 4.824219 -0.59375 4.941406 -0.570312 5.058594 -0.554688 L 5.058594 0 L 0.441406 0 L 0.441406 -0.554688 C 0.566406 -0.566406 0.695312 -0.578125 0.824219 -0.597656 C 0.953125 -0.613281 1.0625 -0.636719 1.15625 -0.667969 C 1.316406 -0.722656 1.429688 -0.808594 1.488281 -0.925781 C 1.550781 -1.042969 1.578125 -1.195312 1.578125 -1.382812 L 1.578125 -5.804688 C 1.578125 -5.960938 1.539062 -6.113281 1.457031 -6.265625 C 1.378906 -6.417969 1.269531 -6.542969 1.140625 -6.636719 C 1.046875 -6.699219 0.933594 -6.75 0.792969 -6.789062 C 0.65625 -6.832031 0.5 -6.859375 0.335938 -6.875 L 0.335938 -7.429688 L 3.957031 -7.625 L 4.070312 -7.511719 L 4.070312 -6.410156 L 4.101562 -6.410156 C 4.242188 -6.539062 4.414062 -6.6875 4.617188 -6.867188 C 4.820312 -7.042969 5.007812 -7.1875 5.179688 -7.300781 C 5.367188 -7.421875 5.613281 -7.523438 5.917969 -7.609375 C 6.222656 -7.695312 6.546875 -7.738281 6.890625 -7.738281 C 7.714844 -7.738281 8.332031 -7.503906 8.746094 -7.039062 C 9.160156 -6.570312 9.367188 -5.949219 9.367188 -5.171875 L 9.367188 -1.449219 C 9.367188 -1.261719 9.394531 -1.113281 9.449219 -1.003906 C 9.503906 -0.890625 9.609375 -0.800781 9.761719 -0.738281 C 9.839844 -0.703125 9.941406 -0.664062 10.058594 -0.628906 C 10.179688 -0.59375 10.316406 -0.570312 10.46875 -0.554688 Z "/>
</g>
<g id="glyph-0-16">
<path d="M 4.175781 -0.894531 C 4.175781 -0.375 4.089844 0.152344 3.914062 0.683594 C 3.734375 1.214844 3.480469 1.671875 3.152344 2.050781 C 2.792969 2.464844 2.359375 2.789062 1.847656 3.023438 C 1.339844 3.257812 0.753906 3.371094 0.0976562 3.371094 C -0.515625 3.371094 -0.988281 3.253906 -1.320312 3.019531 C -1.648438 2.785156 -1.816406 2.464844 -1.816406 2.066406 C -1.816406 1.925781 -1.800781 1.792969 -1.765625 1.671875 C -1.734375 1.550781 -1.664062 1.421875 -1.558594 1.292969 C -1.476562 1.179688 -1.351562 1.085938 -1.179688 1.007812 C -1.011719 0.929688 -0.820312 0.890625 -0.609375 0.890625 C -0.1875 0.890625 0.136719 1.039062 0.363281 1.339844 C 0.59375 1.640625 0.824219 2.09375 1.0625 2.695312 C 1.269531 2.578125 1.425781 2.332031 1.523438 1.953125 C 1.621094 1.574219 1.671875 0.746094 1.671875 -0.523438 L 1.671875 -5.773438 C 1.671875 -5.949219 1.632812 -6.105469 1.558594 -6.238281 C 1.480469 -6.375 1.378906 -6.488281 1.246094 -6.578125 C 1.148438 -6.644531 0.996094 -6.707031 0.785156 -6.765625 C 0.574219 -6.820312 0.390625 -6.859375 0.226562 -6.875 L 0.226562 -7.429688 L 4.0625 -7.625 L 4.175781 -7.511719 L 4.175781 -0.894531 M 4.207031 -10.359375 C 4.207031 -9.976562 4.058594 -9.648438 3.761719 -9.375 C 3.46875 -9.105469 3.117188 -8.96875 2.710938 -8.96875 C 2.300781 -8.96875 1.949219 -9.105469 1.652344 -9.375 C 1.355469 -9.648438 1.207031 -9.976562 1.207031 -10.359375 C 1.207031 -10.746094 1.355469 -11.074219 1.652344 -11.347656 C 1.949219 -11.621094 2.300781 -11.757812 2.710938 -11.757812 C 3.121094 -11.757812 3.472656 -11.621094 3.765625 -11.347656 C 4.0625 -11.074219 4.207031 -10.746094 4.207031 -10.359375 Z "/>
</g>
<g id="glyph-0-17">
<path d="M 4.777344 0.242188 C 4.074219 0.242188 3.453125 0.140625 2.914062 -0.0664062 C 2.375 -0.269531 1.929688 -0.550781 1.578125 -0.902344 C 1.230469 -1.261719 0.96875 -1.6875 0.796875 -2.179688 C 0.625 -2.671875 0.539062 -3.207031 0.539062 -3.78125 C 0.539062 -4.308594 0.644531 -4.8125 0.855469 -5.285156 C 1.066406 -5.761719 1.347656 -6.179688 1.710938 -6.539062 C 2.078125 -6.910156 2.539062 -7.203125 3.085938 -7.425781 C 3.636719 -7.644531 4.242188 -7.753906 4.90625 -7.753906 C 5.839844 -7.753906 6.574219 -7.578125 7.117188 -7.226562 C 7.660156 -6.875 7.929688 -6.402344 7.929688 -5.804688 C 7.929688 -5.4375 7.832031 -5.144531 7.640625 -4.921875 C 7.449219 -4.699219 7.117188 -4.585938 6.644531 -4.585938 C 6.265625 -4.585938 5.949219 -4.679688 5.691406 -4.859375 C 5.4375 -5.042969 5.308594 -5.28125 5.308594 -5.574219 C 5.308594 -5.824219 5.351562 -6.070312 5.429688 -6.3125 C 5.511719 -6.554688 5.558594 -6.738281 5.574219 -6.867188 C 5.519531 -6.957031 5.449219 -7.027344 5.363281 -7.074219 C 5.277344 -7.125 5.140625 -7.148438 4.960938 -7.148438 C 4.730469 -7.148438 4.523438 -7.09375 4.335938 -6.988281 C 4.148438 -6.882812 3.976562 -6.695312 3.8125 -6.425781 C 3.65625 -6.171875 3.53125 -5.832031 3.4375 -5.40625 C 3.34375 -4.984375 3.296875 -4.472656 3.296875 -3.875 C 3.296875 -2.972656 3.507812 -2.246094 3.929688 -1.695312 C 4.355469 -1.140625 4.859375 -0.867188 5.445312 -0.867188 C 6.007812 -0.867188 6.453125 -0.992188 6.785156 -1.242188 C 7.117188 -1.492188 7.414062 -1.847656 7.671875 -2.308594 L 8.242188 -1.914062 C 8.085938 -1.605469 7.898438 -1.324219 7.679688 -1.066406 C 7.460938 -0.8125 7.199219 -0.585938 6.898438 -0.386719 C 6.578125 -0.179688 6.253906 -0.0234375 5.925781 0.0820312 C 5.59375 0.191406 5.214844 0.242188 4.777344 0.242188 Z "/>
</g>
<g id="glyph-0-18">
<path d="M 6.089844 -0.347656 C 5.769531 -0.207031 5.421875 -0.078125 5.050781 0.0351562 C 4.679688 0.148438 4.230469 0.207031 3.699219 0.207031 C 2.910156 0.207031 2.324219 0.0117188 1.941406 -0.371094 C 1.558594 -0.757812 1.367188 -1.304688 1.367188 -2.019531 L 1.367188 -6.675781 L 0 -6.675781 L 0 -7.503906 L 1.398438 -7.503906 L 1.398438 -9.804688 L 3.859375 -9.804688 L 3.859375 -7.503906 L 5.992188 -7.503906 L 5.992188 -6.675781 L 3.875 -6.675781 L 3.875 -2.519531 C 3.875 -1.929688 3.957031 -1.507812 4.121094 -1.261719 C 4.285156 -1.011719 4.582031 -0.890625 5.007812 -0.890625 C 5.148438 -0.890625 5.335938 -0.898438 5.582031 -0.917969 C 5.824219 -0.9375 5.996094 -0.960938 6.089844 -0.988281 Z "/>
</g>
</g>
</defs>
<g fill="rgb(100%, 100%, 100%)" fill-opacity="1">
<use xlink:href="#glyph-0-0" x="30" y="34.264648"/>
<use xlink:href="#glyph-0-1" x="41" y="34.264648"/>
<use xlink:href="#glyph-0-2" x="52" y="34.264648"/>
<use xlink:href="#glyph-0-3" x="57" y="34.264648"/>
<use xlink:href="#glyph-0-4" x="66" y="34.264648"/>
<use xlink:href="#glyph-0-5" x="74" y="34.264648"/>
<use xlink:href="#glyph-0-6" x="78" y="34.264648"/>
<use xlink:href="#glyph-0-7" x="86" y="34.264648"/>
<use xlink:href="#glyph-0-8" x="90" y="34.264648"/>
<use xlink:href="#glyph-0-1" x="100" y="34.264648"/>
<use xlink:href="#glyph-0-9" x="111" y="34.264648"/>
<use xlink:href="#glyph-0-7" x="127" y="34.264648"/>
<use xlink:href="#glyph-0-10" x="131" y="34.264648"/>
<use xlink:href="#glyph-0-11" x="141" y="34.264648"/>
<use xlink:href="#glyph-0-7" x="147" y="34.264648"/>
<use xlink:href="#glyph-0-12" x="151" y="34.264648"/>
<use xlink:href="#glyph-0-10" x="162" y="34.264648"/>
<use xlink:href="#glyph-0-13" x="172" y="34.264648"/>
<use xlink:href="#glyph-0-3" x="185" y="34.264648"/>
<use xlink:href="#glyph-0-4" x="194" y="34.264648"/>
<use xlink:href="#glyph-0-6" x="202" y="34.264648"/>
<use xlink:href="#glyph-0-7" x="210" y="34.264648"/>
<use xlink:href="#glyph-0-14" x="214" y="34.264648"/>
<use xlink:href="#glyph-0-10" x="225" y="34.264648"/>
<use xlink:href="#glyph-0-15" x="235" y="34.264648"/>
<use xlink:href="#glyph-0-16" x="246" y="34.264648"/>
<use xlink:href="#glyph-0-3" x="251" y="34.264648"/>
<use xlink:href="#glyph-0-17" x="260" y="34.264648"/>
<use xlink:href="#glyph-0-18" x="268" y="34.264648"/>
<use xlink:href="#glyph-0-1" x="274" y="34.264648"/>
<use xlink:href="#glyph-0-4" x="285" y="34.264648"/>
<use xlink:href="#glyph-0-3" x="293" y="34.264648"/>
</g>
</svg>
