<?xml version="1.0" encoding="UTF-8"?>
<svg xmlns="http://www.w3.org/2000/svg" xmlns:xlink="http://www.w3.org/1999/xlink" width="1920" height="1080" viewBox="0 0 1920 1080">
<defs>
<g>
<g id="glyph-0-0">
<path d="M 3.03125 0 L 2.222656 0 C 2.082031 -0.203125 1.929688 -0.421875 1.769531 -0.65625 C 1.609375 -0.890625 1.441406 -1.117188 1.265625 -1.335938 L 1.042969 -1.128906 L 1.042969 -0.492188 C 1.042969 -0.429688 1.054688 -0.375 1.078125 -0.332031 C 1.101562 -0.289062 1.140625 -0.257812 1.195312 -0.238281 C 1.238281 -0.21875 1.277344 -0.207031 1.320312 -0.199219 C 1.359375 -0.1875 1.40625 -0.183594 1.457031 -0.179688 L 1.457031 0 L 0.148438 0 L 0.148438 -0.179688 C 0.1875 -0.183594 0.230469 -0.1875 0.277344 -0.191406 C 0.320312 -0.195312 0.359375 -0.203125 0.390625 -0.210938 C 0.4375 -0.226562 0.476562 -0.257812 0.503906 -0.296875 C 0.527344 -0.335938 0.539062 -0.390625 0.539062 -0.457031 L 0.539062 -3.566406 C 0.539062 -3.632812 0.527344 -3.695312 0.496094 -3.753906 C 0.46875 -3.816406 0.433594 -3.859375 0.386719 -3.890625 C 0.351562 -3.917969 0.289062 -3.9375 0.210938 -3.945312 C 0.128906 -3.957031 0.0664062 -3.960938 0.015625 -3.964844 L 0.015625 -4.140625 L 1.007812 -4.199219 L 1.042969 -4.160156 L 1.042969 -1.328125 C 1.1875 -1.46875 1.339844 -1.621094 1.5 -1.78125 C 1.664062 -1.945312 1.804688 -2.089844 1.914062 -2.214844 C 1.929688 -2.230469 1.945312 -2.253906 1.964844 -2.28125 C 1.980469 -2.304688 1.988281 -2.328125 1.988281 -2.34375 C 1.988281 -2.390625 1.949219 -2.429688 1.871094 -2.453125 C 1.792969 -2.476562 1.71875 -2.492188 1.644531 -2.5 L 1.644531 -2.675781 L 2.820312 -2.675781 L 2.820312 -2.507812 C 2.667969 -2.460938 2.535156 -2.40625 2.417969 -2.335938 C 2.300781 -2.269531 2.210938 -2.207031 2.152344 -2.152344 C 2.109375 -2.117188 2.046875 -2.058594 1.964844 -1.976562 C 1.886719 -1.898438 1.777344 -1.789062 1.632812 -1.660156 C 1.78125 -1.476562 1.949219 -1.257812 2.132812 -1 C 2.320312 -0.746094 2.453125 -0.5625 2.539062 -0.449219 C 2.617188 -0.339844 2.691406 -0.269531 2.753906 -0.238281 C 2.816406 -0.207031 2.910156 -0.1875 3.03125 -0.179688 Z "/>
</g>
<g id="glyph-0-1">
<path d="M 3.15625 -1.851562 L 0.417969 -1.851562 L 0.417969 -2.191406 L 3.15625 -2.191406 L 3.15625 -1.851562 M 3.15625 -0.84375 L 0.417969 -0.84375 L 0.417969 -1.183594 L 3.15625 -1.183594 Z "/>
</g>
<g id="glyph-0-2">
<path d="M 2.863281 -1.398438 C 2.863281 -1.082031 2.816406 -0.789062 2.714844 -0.511719 C 2.617188 -0.234375 2.472656 0.0117188 2.285156 0.21875 C 2.105469 0.425781 1.882812 0.597656 1.617188 0.734375 C 1.355469 0.871094 1.0625 0.960938 0.734375 1.003906 L 0.6875 0.757812 L 0.929688 0.714844 C 1.320312 0.59375 1.625 0.40625 1.84375 0.148438 C 2.0625 -0.105469 2.203125 -0.429688 2.265625 -0.820312 C 2.117188 -0.695312 1.96875 -0.601562 1.820312 -0.542969 C 1.675781 -0.484375 1.507812 -0.457031 1.324219 -0.457031 C 1.027344 -0.457031 0.773438 -0.570312 0.554688 -0.800781 C 0.335938 -1.03125 0.226562 -1.320312 0.226562 -1.667969 C 0.226562 -2.042969 0.355469 -2.355469 0.605469 -2.613281 C 0.859375 -2.871094 1.171875 -2.996094 1.539062 -2.996094 C 1.945312 -2.996094 2.265625 -2.855469 2.503906 -2.566406 C 2.746094 -2.28125 2.863281 -1.890625 2.863281 -1.398438 M 2.289062 -1.429688 C 2.289062 -1.851562 2.21875 -2.183594 2.082031 -2.425781 C 1.945312 -2.664062 1.761719 -2.785156 1.535156 -2.785156 C 1.320312 -2.785156 1.148438 -2.691406 1.015625 -2.503906 C 0.882812 -2.320312 0.816406 -2.066406 0.816406 -1.738281 C 0.816406 -1.445312 0.882812 -1.210938 1.019531 -1.035156 C 1.152344 -0.855469 1.332031 -0.769531 1.558594 -0.769531 C 1.699219 -0.769531 1.832031 -0.792969 1.949219 -0.84375 C 2.066406 -0.898438 2.175781 -0.980469 2.277344 -1.09375 C 2.277344 -1.101562 2.277344 -1.113281 2.28125 -1.136719 C 2.28125 -1.160156 2.285156 -1.1875 2.285156 -1.230469 C 2.285156 -1.253906 2.285156 -1.285156 2.285156 -1.320312 C 2.289062 -1.355469 2.289062 -1.394531 2.289062 -1.429688 Z "/>
</g>
</g>
</defs>
<g fill="rgb(100%, 100%, 100%)" fill-opacity="1">
<use xlink:href="#glyph-0-0" x="30" y="25.094727"/>
<use xlink:href="#glyph-0-1" x="33" y="25.094727"/>
<use xlink:href="#glyph-0-2" x="37" y="25.094727"/>
</g>
</svg>
