<?xml version="1.0" encoding="UTF-8"?>
<svg xmlns="http://www.w3.org/2000/svg" xmlns:xlink="http://www.w3.org/1999/xlink" width="1920" height="1080" viewBox="0 0 1920 1080">
<defs>
<g>
<g id="glyph-0-0">
<path d="M 3.976562 0 L 0.417969 0 L 0.417969 -0.519531 C 0.484375 -0.597656 0.582031 -0.6875 0.703125 -0.78125 C 0.824219 -0.878906 0.96875 -0.984375 1.136719 -1.101562 C 1.238281 -1.167969 1.359375 -1.242188 1.5 -1.324219 C 1.640625 -1.40625 1.800781 -1.492188 1.980469 -1.589844 C 2.183594 -1.695312 2.335938 -1.789062 2.445312 -1.871094 C 2.550781 -1.949219 2.648438 -2.050781 2.738281 -2.167969 C 2.796875 -2.25 2.84375 -2.347656 2.878906 -2.464844 C 2.914062 -2.582031 2.933594 -2.75 2.933594 -2.964844 C 2.933594 -3.28125 2.847656 -3.515625 2.675781 -3.664062 C 2.507812 -3.8125 2.289062 -3.886719 2.023438 -3.886719 C 1.859375 -3.886719 1.703125 -3.851562 1.558594 -3.789062 C 1.410156 -3.722656 1.300781 -3.632812 1.226562 -3.519531 C 1.246094 -3.4375 1.265625 -3.34375 1.292969 -3.230469 C 1.320312 -3.121094 1.332031 -3.011719 1.332031 -2.90625 C 1.332031 -2.808594 1.292969 -2.722656 1.214844 -2.648438 C 1.132812 -2.574219 1.015625 -2.535156 0.859375 -2.535156 C 0.730469 -2.535156 0.632812 -2.582031 0.566406 -2.667969 C 0.496094 -2.753906 0.464844 -2.871094 0.464844 -3.019531 C 0.464844 -3.15625 0.5 -3.292969 0.578125 -3.429688 C 0.652344 -3.570312 0.761719 -3.695312 0.902344 -3.8125 C 1.042969 -3.925781 1.214844 -4.019531 1.421875 -4.089844 C 1.625 -4.160156 1.847656 -4.195312 2.085938 -4.195312 C 2.605469 -4.195312 3.015625 -4.082031 3.320312 -3.847656 C 3.625 -3.617188 3.777344 -3.308594 3.777344 -2.921875 C 3.777344 -2.738281 3.75 -2.570312 3.695312 -2.417969 C 3.640625 -2.265625 3.554688 -2.132812 3.433594 -2.015625 C 3.296875 -1.886719 3.140625 -1.777344 2.960938 -1.683594 C 2.78125 -1.589844 2.507812 -1.460938 2.136719 -1.296875 C 1.917969 -1.199219 1.710938 -1.097656 1.523438 -0.988281 C 1.332031 -0.882812 1.175781 -0.777344 1.054688 -0.675781 L 3.976562 -0.675781 Z "/>
</g>
<g id="glyph-0-1">
<path d="M 5.902344 -5.117188 C 5.832031 -5.117188 5.722656 -5.097656 5.574219 -5.058594 C 5.429688 -5.019531 5.324219 -4.980469 5.257812 -4.941406 C 5.167969 -4.878906 5.105469 -4.753906 5.074219 -4.574219 C 5.042969 -4.394531 5.027344 -4.167969 5.027344 -3.890625 L 5.027344 0.0546875 L 4.699219 0.0546875 L 1.433594 -4.355469 L 1.433594 -1.574219 C 1.433594 -1.265625 1.453125 -1.023438 1.492188 -0.859375 C 1.53125 -0.691406 1.589844 -0.570312 1.671875 -0.5 C 1.730469 -0.445312 1.847656 -0.394531 2.03125 -0.34375 C 2.214844 -0.296875 2.335938 -0.273438 2.390625 -0.269531 L 2.390625 0 L 0.183594 0 L 0.183594 -0.269531 C 0.25 -0.273438 0.367188 -0.300781 0.527344 -0.34375 C 0.691406 -0.386719 0.792969 -0.429688 0.832031 -0.464844 C 0.921875 -0.535156 0.980469 -0.640625 1.015625 -0.789062 C 1.046875 -0.933594 1.0625 -1.183594 1.0625 -1.535156 L 1.0625 -4.1875 C 1.0625 -4.304688 1.042969 -4.421875 1.003906 -4.539062 C 0.960938 -4.65625 0.90625 -4.746094 0.839844 -4.808594 C 0.75 -4.890625 0.625 -4.960938 0.46875 -5.023438 C 0.3125 -5.082031 0.1875 -5.113281 0.0898438 -5.117188 L 0.0898438 -5.390625 L 1.628906 -5.390625 L 4.660156 -1.28125 L 4.660156 -3.84375 C 4.660156 -4.15625 4.640625 -4.398438 4.597656 -4.566406 C 4.558594 -4.734375 4.5 -4.847656 4.425781 -4.902344 C 4.351562 -4.949219 4.238281 -4.996094 4.078125 -5.042969 C 3.914062 -5.089844 3.792969 -5.113281 3.710938 -5.117188 L 3.710938 -5.390625 L 5.902344 -5.390625 Z "/>
</g>
</g>
</defs>
<g fill="rgb(100%, 100%, 100%)" fill-opacity="1">
<use xlink:href="#glyph-0-0" x="30" y="27.131836"/>
<use xlink:href="#glyph-0-1" x="34" y="27.131836"/>
</g>
</svg>
